REM DIRINDEX 1\2,1\3,1\4,1\5
REM DIRNAME "folder01","folder02","folder03","folder04","folder05"
TITLE ""
FILE "P1Q_t_0979-0988.mp3" MP3
  TRACK 01 AUDIO
    TITLE "3:cjc173_3889"
    INDEX 01 00:00:00
  TRACK 02 AUDIO
    TITLE "0:"
    INDEX 01 00:01:16
  TRACK 03 AUDIO
    TITLE "4:cjc173_3890"
    INDEX 01 00:01:35
  TRACK 04 AUDIO
    TITLE "0:"
    INDEX 01 00:03:67
  TRACK 05 AUDIO
    TITLE "5:cjc173_3891"
    INDEX 01 00:04:12
  TRACK 06 AUDIO
    TITLE "0:"
    INDEX 01 00:08:67
  TRACK 07 AUDIO
    TITLE "3:cjc173_3892"
    INDEX 01 00:09:37
  TRACK 08 AUDIO
    TITLE "0:"
    INDEX 01 00:10:40
  TRACK 09 AUDIO
    TITLE "4:cjc173_3893"
    INDEX 01 00:10:60
  TRACK 10 AUDIO
    TITLE "0:"
    INDEX 01 00:13:27
  TRACK 11 AUDIO
    TITLE "5:cjc173_3894"
    INDEX 01 00:13:48
  TRACK 12 AUDIO
    TITLE "0:"
    INDEX 01 00:18:04
  TRACK 13 AUDIO
    TITLE "3:cjc173_3895"
    INDEX 01 00:18:49
  TRACK 14 AUDIO
    TITLE "0:"
    INDEX 01 00:20:09
  TRACK 15 AUDIO
    TITLE "4:cjc173_3896"
    INDEX 01 00:20:29
  TRACK 16 AUDIO
    TITLE "0:"
    INDEX 01 00:23:13
  TRACK 17 AUDIO
    TITLE "5:cjc173_3897"
    INDEX 01 00:23:37
  TRACK 18 AUDIO
    TITLE "0:"
    INDEX 01 00:27:58
  TRACK 19 AUDIO
    TITLE "3:cjc173_3898"
    INDEX 01 00:28:28
  TRACK 20 AUDIO
    TITLE "0:"
    INDEX 01 00:29:28
  TRACK 21 AUDIO
    TITLE "4:cjc173_3899"
    INDEX 01 00:29:49
  TRACK 22 AUDIO
    TITLE "0:"
    INDEX 01 00:31:13
  TRACK 23 AUDIO
    TITLE "5:cjc173_3900"
    INDEX 01 00:31:32
  TRACK 24 AUDIO
    TITLE "0:"
    INDEX 01 00:35:60
  TRACK 25 AUDIO
    TITLE "3:cjc173_3901"
    INDEX 01 00:36:32
  TRACK 26 AUDIO
    TITLE "0:"
    INDEX 01 00:37:41
  TRACK 27 AUDIO
    TITLE "4:cjc173_3902"
    INDEX 01 00:37:62
  TRACK 28 AUDIO
    TITLE "0:"
    INDEX 01 00:40:22
  TRACK 29 AUDIO
    TITLE "5:cjc173_3903"
    INDEX 01 00:40:41
  TRACK 30 AUDIO
    TITLE "0:"
    INDEX 01 00:46:06
  TRACK 31 AUDIO
    TITLE "3:cjc173_3904"
    INDEX 01 00:46:52
  TRACK 32 AUDIO
    TITLE "0:"
    INDEX 01 00:47:75
  TRACK 33 AUDIO
    TITLE "4:cjc173_3905"
    INDEX 01 00:48:21
  TRACK 34 AUDIO
    TITLE "0:"
    INDEX 01 00:51:21
  TRACK 35 AUDIO
    TITLE "5:cjc173_3906"
    INDEX 01 00:51:41
  TRACK 36 AUDIO
    TITLE "0:"
    INDEX 01 00:56:03
  TRACK 37 AUDIO
    TITLE "3:cjc173_3907"
    INDEX 01 00:56:48
  TRACK 38 AUDIO
    TITLE "0:"
    INDEX 01 00:57:63
  TRACK 39 AUDIO
    TITLE "4:cjc173_3908"
    INDEX 01 00:58:10
  TRACK 40 AUDIO
    TITLE "0:"
    INDEX 01 01:00:44
  TRACK 41 AUDIO
    TITLE "5:cjc173_3909"
    INDEX 01 01:00:63
  TRACK 42 AUDIO
    TITLE "0:"
    INDEX 01 01:06:72
  TRACK 43 AUDIO
    TITLE "3:cjc173_3910"
    INDEX 01 01:07:42
  TRACK 44 AUDIO
    TITLE "0:"
    INDEX 01 01:08:73
  TRACK 45 AUDIO
    TITLE "4:cjc173_3911"
    INDEX 01 01:09:21
  TRACK 46 AUDIO
    TITLE "0:"
    INDEX 01 01:11:52
  TRACK 47 AUDIO
    TITLE "5:cjc173_3912"
    INDEX 01 01:11:69
  TRACK 48 AUDIO
    TITLE "0:"
    INDEX 01 01:17:05
  TRACK 49 AUDIO
    TITLE "3:cjc173_3913"
    INDEX 01 01:17:50
  TRACK 50 AUDIO
    TITLE "0:"
    INDEX 01 01:18:59
  TRACK 51 AUDIO
    TITLE "4:cjc173_3914"
    INDEX 01 01:19:06
  TRACK 52 AUDIO
    TITLE "0:"
    INDEX 01 01:23:39
  TRACK 53 AUDIO
    TITLE "5:cjc173_3915"
    INDEX 01 01:23:59
  TRACK 54 AUDIO
    TITLE "0:"
    INDEX 01 01:29:02
  TRACK 55 AUDIO
    TITLE "3:cjc173_3916"
    INDEX 01 01:29:47
  TRACK 56 AUDIO
    TITLE "0:"
    INDEX 01 01:30:57
  TRACK 57 AUDIO
    TITLE "4:cjc173_3917"
    INDEX 01 01:31:03
  TRACK 58 AUDIO
    TITLE "0:"
    INDEX 01 01:33:28
  TRACK 59 AUDIO
    TITLE "5:cjc173_3918"
    INDEX 01 01:33:47
  TRACK 60 AUDIO
    TITLE "0:"
    INDEX 01 01:38:44
